<svg width="946" height="151" viewBox="0 0 946 151" fill="none" xmlns="http://www.w3.org/2000/svg">
<rect x="658.68" y="44.1616" width="22" height="55" rx="4.5" transform="rotate(15 658.68 44.1616)" fill="#DBE2E9" stroke="black"/>
<rect x="646.314" y="33.683" width="22" height="55" rx="4.5" transform="rotate(60 646.314 33.683)" fill="white" stroke="black"/>
<rect x="679.5" y="46.5" width="22" height="55" rx="4.5" fill="#30B700" stroke="black"/>
<circle cx="690.5" cy="88.5" r="6.5" fill="black"/>
<rect x="589.5" y="101.5" width="22" height="55" rx="4.5" transform="rotate(-90 589.5 101.5)" fill="#00A3E1" stroke="black"/>
<circle cx="631.5" cy="90.5" r="6.5" transform="rotate(-90 631.5 90.5)" fill="black"/>
<rect x="0.5" y="102.5" width="945" height="11" rx="5.5" fill="#BD9A7A" stroke="black"/>
<path d="M149.118 102.165H149.058L149 102.18C136.023 105.346 131.978 117.756 130.648 129.087C130.062 134.087 129.996 138.938 129.944 142.781C129.937 143.309 129.93 143.819 129.922 144.307C129.889 146.338 129.838 147.978 129.681 149.107C129.602 149.677 129.501 150.071 129.387 150.309C129.332 150.424 129.287 150.475 129.265 150.494C129.254 150.489 129.238 150.478 129.217 150.461C129.15 150.406 129.059 150.304 128.952 150.134C128.736 149.794 128.504 149.267 128.272 148.555C127.81 147.137 127.378 145.089 127.056 142.607C126.413 137.648 126.218 131.028 127.068 124.412C127.919 117.789 129.811 111.219 133.301 106.316C136.775 101.437 141.839 98.1974 149.118 98.1974C153.892 98.1974 158.389 98.0318 162.263 97.8891C164.335 97.8128 166.228 97.7431 167.89 97.7088C170.292 97.6592 172.199 97.6836 173.499 97.8584C174.154 97.9464 174.608 98.0672 174.885 98.208C175.151 98.3432 175.151 98.4359 175.151 98.4604V98.4617C175.151 98.5226 175.111 98.6768 174.806 98.9136C174.509 99.1429 174.041 99.3859 173.39 99.6298C172.094 100.115 170.189 100.562 167.801 100.94C163.033 101.696 156.427 102.165 149.118 102.165ZM129.281 150.502C129.281 150.502 129.28 150.502 129.279 150.501L129.281 150.502Z" fill="white" stroke="black"/>
<path d="M187.967 69.1586C189.382 77.4492 189.699 83.6614 189.153 88.3157C188.607 92.9651 187.205 96.0256 185.21 98.0614C183.215 100.098 180.57 101.167 177.423 101.721C174.269 102.277 170.662 102.309 166.773 102.309C162.89 102.309 158.899 102.252 155.237 101.613C151.576 100.975 148.29 99.7623 145.786 97.4857C140.811 92.9614 138.697 83.9914 143.562 65.9922C145.571 58.5575 147.082 53.001 148.461 48.8382C149.843 44.6674 151.076 41.9545 152.506 40.1712C153.912 38.4181 155.525 37.543 157.749 37.0983C160.011 36.6459 162.872 36.6436 166.773 36.6436C170.676 36.6436 173.557 36.6464 175.813 37.1463C178.024 37.6364 179.606 38.5993 180.916 40.5397C182.25 42.517 183.314 45.5271 184.396 50.1502C185.475 54.7635 186.56 60.9221 187.967 69.1586Z" fill="white" stroke="black"/>
<path d="M157.882 9.63829C157.882 10.1576 157.584 10.9416 157.012 11.8818C156.453 12.8002 155.679 13.7951 154.831 14.7149C153.982 15.6349 153.072 16.4658 152.248 17.0622C151.836 17.3605 151.454 17.5936 151.12 17.7502C150.779 17.9102 150.522 17.9734 150.35 17.9734C150.092 17.9734 149.767 17.7698 149.417 17.1081C149.083 16.4748 148.812 15.5739 148.603 14.552C148.186 12.5164 148.039 10.1418 148.039 8.8351C148.039 7.53007 148.186 5.87879 148.591 4.57137C148.794 3.91612 149.05 3.384 149.356 3.02436C149.653 2.67601 149.976 2.50797 150.35 2.50797C150.761 2.50797 151.44 2.75482 152.286 3.25616C153.109 3.74339 154.017 4.42616 154.862 5.19486C155.707 5.96408 156.475 6.80641 157.028 7.60719C157.593 8.4259 157.882 9.13 157.882 9.63829Z" fill="#FFC0CB" stroke="black"/>
<path d="M172.135 7.63033C172.135 8.14963 172.433 8.93361 173.005 9.87381C173.564 10.7922 174.338 11.7871 175.187 12.7069C176.035 13.6269 176.945 14.4578 177.769 15.0542C178.181 15.3526 178.563 15.5856 178.897 15.7422C179.239 15.9023 179.495 15.9654 179.667 15.9654C179.925 15.9654 180.25 15.7618 180.6 15.1002C180.934 14.4668 181.205 13.5659 181.414 12.544C181.831 10.5084 181.978 8.13384 181.978 6.82714C181.978 5.52211 181.831 3.87082 181.427 2.56341C181.224 1.90816 180.967 1.37604 180.661 1.0164C180.365 0.668048 180.042 0.5 179.667 0.5C179.257 0.5 178.578 0.746857 177.731 1.2482C176.908 1.73543 176 2.41819 175.156 3.1869C174.31 3.95611 173.542 4.79845 172.99 5.59923C172.425 6.41794 172.135 7.12204 172.135 7.63033Z" fill="#FFC0CB" stroke="black"/>
<path d="M181.576 21.6862V21.7186L181.581 21.7508C182.754 30.7504 176.088 39.258 168.021 39.258C160.088 39.258 155.539 36.9361 152.952 33.6562C150.346 30.3525 149.646 25.9737 149.646 21.6862C149.646 17.5491 151.856 13.8655 155.135 11.2001C158.417 8.5335 162.724 6.92554 166.816 6.92554C174.973 6.92554 181.576 13.317 181.576 21.6862Z" fill="white" stroke="black"/>
<path d="M169.419 26.3051C169.419 27.8964 167.807 29.9816 166.804 29.9816C165.802 29.9816 163.974 27.8964 163.974 26.3051C163.974 24.6051 165.802 24.2193 166.804 24.2193C167.807 24.2193 169.419 24.7139 169.419 26.3051Z" fill="#FFC0CB"/>
<path d="M161.706 19.5824C161.524 20.5428 160.284 20.5428 158.53 20.5428C156.775 20.5428 155.353 19.2026 155.353 18.1418C155.353 16.7012 154.9 15.7408 158.076 15.7408C159.83 15.7408 162.159 17.1814 161.706 19.5824Z" fill="black"/>
<circle cx="159.989" cy="18.875" r="1.20479" fill="#00FF00"/>
<path d="M170.086 19.9054C170.267 20.8658 171.508 20.8658 173.262 20.8658C175.016 20.8658 176.438 19.5256 176.438 18.4648C176.438 17.0242 176.892 16.0638 173.716 16.0638C171.962 16.0638 169.632 17.5044 170.086 19.9054Z" fill="black"/>
<circle cx="174.446" cy="18.875" r="1.20479" fill="#00FF00"/>
<path d="M172.438 30.9229C172.438 31.5882 168.812 33.3324 166.816 33.3324C164.82 33.3324 161.193 31.5883 161.193 30.9229C161.193 30.2575 164.82 31.726 166.816 31.726C168.812 31.726 172.438 30.2575 172.438 30.9229Z" fill="black"/>
<path d="M167.619 31.3245C167.619 32.2116 167.259 32.9308 166.816 32.9308C166.372 32.9308 166.013 32.2116 166.013 31.3245C166.013 30.4373 166.372 29.7181 166.816 29.7181C167.259 29.7181 167.619 30.4373 167.619 31.3245Z" fill="black"/>
</svg>
