<svg width="14" height="14" viewBox="0 0 14 14" fill="none" xmlns="http://www.w3.org/2000/svg">
<path d="M4.86364 1C4.86364 0.723858 5.08749 0.5 5.36364 0.5H12C12.8284 0.5 13.5 1.17157 13.5 2V12C13.5 12.8284 12.8284 13.5 12 13.5H2C1.17157 13.5 0.5 12.8284 0.5 12V5.36364C0.5 5.08749 0.723858 4.86364 1 4.86364C1.27614 4.86364 1.5 5.08749 1.5 5.36364V12C1.5 12.2761 1.72386 12.5 2 12.5H12C12.2761 12.5 12.5 12.2761 12.5 12V2C12.5 1.72386 12.2761 1.5 12 1.5H5.36364C5.08749 1.5 4.86364 1.27614 4.86364 1Z" fill="black"/>
</svg>
