<svg width="946" height="225" viewBox="0 0 946 225" fill="none" xmlns="http://www.w3.org/2000/svg">
<rect x="657.13" y="117.579" width="22" height="55" transform="rotate(10 657.13 117.579)" fill="#DBE2E9" stroke="black"/>
<rect x="644.598" y="97.7071" width="22" height="55" transform="rotate(45 644.598 97.7071)" fill="white" stroke="black"/>
<rect x="679.5" y="120.5" width="22" height="55" fill="#30B700" stroke="black"/>
<circle cx="690.5" cy="162.5" r="6.5" fill="black"/>
<rect x="679.5" y="120.5" width="22" height="55" stroke="black"/>
<rect x="591.5" y="175.5" width="22" height="55" transform="rotate(-90 591.5 175.5)" fill="#00A3E1" stroke="black"/>
<circle cx="633.5" cy="164.5" r="6.5" transform="rotate(-90 633.5 164.5)" fill="black"/>
<rect x="591.5" y="175.5" width="22" height="55" transform="rotate(-90 591.5 175.5)" stroke="black"/>
<rect x="0.5" y="176.5" width="945" height="11" fill="#BD9A7A" stroke="black"/>
<path d="M149.118 176.165H149.058L149 176.18C136.023 179.346 131.978 191.756 130.648 203.087C130.062 208.087 129.996 212.938 129.944 216.781C129.937 217.309 129.93 217.819 129.922 218.307C129.889 220.338 129.838 221.978 129.681 223.107C129.602 223.677 129.501 224.071 129.387 224.309C129.332 224.424 129.287 224.475 129.265 224.494C129.254 224.489 129.238 224.478 129.217 224.461C129.15 224.406 129.059 224.304 128.952 224.134C128.736 223.794 128.504 223.267 128.272 222.555C127.81 221.137 127.378 219.089 127.056 216.607C126.413 211.648 126.218 205.028 127.068 198.412C127.919 191.789 129.811 185.219 133.301 180.316C136.775 175.437 141.839 172.197 149.118 172.197C153.892 172.197 158.389 172.032 162.263 171.889C164.335 171.813 166.228 171.743 167.89 171.709C170.292 171.659 172.199 171.684 173.499 171.858C174.154 171.946 174.608 172.067 174.885 172.208C175.151 172.343 175.151 172.436 175.151 172.46V172.462C175.151 172.523 175.111 172.677 174.806 172.914C174.509 173.143 174.041 173.386 173.39 173.63C172.094 174.115 170.189 174.562 167.801 174.94C163.033 175.696 156.427 176.165 149.118 176.165ZM129.281 224.502C129.281 224.502 129.28 224.502 129.279 224.501L129.281 224.502Z" fill="white" stroke="black"/>
<path d="M187.967 143.159C189.382 151.449 189.699 157.661 189.153 162.316C188.607 166.965 187.205 170.026 185.21 172.061C183.215 174.098 180.57 175.167 177.423 175.721C174.269 176.277 170.662 176.309 166.773 176.309C162.89 176.309 158.899 176.252 155.237 175.613C151.576 174.975 148.29 173.762 145.786 171.486C140.811 166.961 138.697 157.991 143.562 139.992C145.571 132.557 147.082 127.001 148.461 122.838C149.843 118.667 151.076 115.955 152.506 114.171C153.912 112.418 155.525 111.543 157.749 111.098C160.011 110.646 162.872 110.644 166.773 110.644C170.676 110.644 173.557 110.646 175.813 111.146C178.024 111.636 179.606 112.599 180.916 114.54C182.25 116.517 183.314 119.527 184.396 124.15C185.475 128.763 186.56 134.922 187.967 143.159Z" fill="white" stroke="black"/>
<path d="M157.882 83.6383C157.882 84.1576 157.584 84.9416 157.012 85.8818C156.453 86.8002 155.679 87.7951 154.831 88.7149C153.982 89.6349 153.072 90.4658 152.248 91.0622C151.836 91.3605 151.454 91.5936 151.12 91.7502C150.779 91.9102 150.522 91.9734 150.35 91.9734C150.092 91.9734 149.767 91.7698 149.417 91.1081C149.083 90.4748 148.812 89.5739 148.603 88.552C148.186 86.5164 148.039 84.1418 148.039 82.8351C148.039 81.5301 148.186 79.8788 148.591 78.5714C148.794 77.9161 149.05 77.384 149.356 77.0244C149.653 76.676 149.976 76.508 150.35 76.508C150.761 76.508 151.44 76.7548 152.286 77.2562C153.109 77.7434 154.017 78.4262 154.862 79.1949C155.707 79.9641 156.475 80.8064 157.028 81.6072C157.593 82.4259 157.882 83.13 157.882 83.6383Z" fill="#FFC0CB" stroke="black"/>
<path d="M172.135 81.6303C172.135 82.1496 172.433 82.9336 173.005 83.8738C173.564 84.7922 174.338 85.7871 175.187 86.7069C176.035 87.6269 176.945 88.4578 177.769 89.0542C178.181 89.3526 178.563 89.5856 178.897 89.7422C179.239 89.9023 179.495 89.9654 179.667 89.9654C179.925 89.9654 180.25 89.7618 180.6 89.1002C180.934 88.4668 181.205 87.5659 181.414 86.544C181.831 84.5084 181.978 82.1338 181.978 80.8271C181.978 79.5221 181.831 77.8708 181.427 76.5634C181.224 75.9082 180.967 75.376 180.661 75.0164C180.365 74.668 180.042 74.5 179.667 74.5C179.257 74.5 178.578 74.7469 177.731 75.2482C176.908 75.7354 176 76.4182 175.156 77.1869C174.31 77.9561 173.542 78.7984 172.99 79.5992C172.425 80.4179 172.135 81.122 172.135 81.6303Z" fill="#FFC0CB" stroke="black"/>
<path d="M181.576 95.6862V95.7186L181.581 95.7508C182.754 104.75 176.088 113.258 168.021 113.258C160.088 113.258 155.539 110.936 152.952 107.656C150.346 104.352 149.646 99.9737 149.646 95.6862C149.646 91.5491 151.856 87.8655 155.135 85.2001C158.417 82.5335 162.724 80.9255 166.816 80.9255C174.973 80.9255 181.576 87.317 181.576 95.6862Z" fill="white" stroke="black"/>
<path d="M169.419 100.305C169.419 101.896 167.807 103.982 166.804 103.982C165.802 103.982 163.974 101.896 163.974 100.305C163.974 98.6051 165.802 98.2193 166.804 98.2193C167.807 98.2193 169.419 98.7139 169.419 100.305Z" fill="#FFC0CB"/>
<path d="M161.706 93.5824C161.524 94.5428 160.284 94.5428 158.53 94.5428C156.775 94.5428 155.353 93.2026 155.353 92.1418C155.353 90.7012 154.9 89.7408 158.076 89.7408C159.83 89.7408 162.159 91.1814 161.706 93.5824Z" fill="black"/>
<circle cx="159.989" cy="92.875" r="1.20479" fill="#00FF00"/>
<path d="M170.086 93.9054C170.267 94.8658 171.508 94.8658 173.262 94.8658C175.016 94.8658 176.438 93.5256 176.438 92.4648C176.438 91.0242 176.892 90.0638 173.716 90.0638C171.962 90.0638 169.632 91.5044 170.086 93.9054Z" fill="black"/>
<circle cx="174.446" cy="92.875" r="1.20479" fill="#00FF00"/>
<path d="M172.438 104.923C172.438 105.588 168.812 107.332 166.816 107.332C164.82 107.332 161.193 105.588 161.193 104.923C161.193 104.257 164.82 105.726 166.816 105.726C168.812 105.726 172.438 104.257 172.438 104.923Z" fill="black"/>
<path d="M167.619 105.324C167.619 106.212 167.259 106.931 166.816 106.931C166.372 106.931 166.013 106.212 166.013 105.324C166.013 104.437 166.372 103.718 166.816 103.718C167.259 103.718 167.619 104.437 167.619 105.324Z" fill="black"/>
</svg>
