<svg width="369" height="151" viewBox="0 0 369 151" fill="none" xmlns="http://www.w3.org/2000/svg">
<rect x="270.13" y="43.5792" width="22" height="55" transform="rotate(10 270.13 43.5792)" fill="#DBE2E9" stroke="black"/>
<rect x="257.598" y="23.7071" width="22" height="55" transform="rotate(45 257.598 23.7071)" fill="white" stroke="black"/>
<rect x="292.5" y="46.5" width="22" height="55" fill="#30B700" stroke="black"/>
<circle cx="303.5" cy="88.5" r="6.5" fill="black"/>
<rect x="292.5" y="46.5" width="22" height="55" stroke="black"/>
<rect x="204.5" y="101.5" width="22" height="55" transform="rotate(-90 204.5 101.5)" fill="#00A3E1" stroke="black"/>
<circle cx="246.5" cy="90.5" r="6.5" transform="rotate(-90 246.5 90.5)" fill="black"/>
<rect x="204.5" y="101.5" width="22" height="55" transform="rotate(-90 204.5 101.5)" stroke="black"/>
<rect x="0.5" y="102.5" width="368" height="11" fill="#BD9A7A" stroke="black"/>
<path d="M108.118 102.165H108.058L108 102.18C95.0227 105.346 90.9779 117.756 89.6485 129.087C89.0619 134.087 88.9963 138.938 88.9444 142.781C88.9373 143.309 88.9304 143.819 88.9224 144.307C88.8894 146.338 88.8381 147.978 88.6809 149.107C88.6015 149.677 88.5008 150.071 88.3867 150.309C88.3321 150.424 88.2872 150.475 88.2646 150.494C88.2541 150.489 88.2384 150.478 88.2171 150.461C88.1501 150.406 88.0593 150.304 87.9516 150.134C87.7363 149.794 87.5043 149.267 87.272 148.555C86.8096 147.137 86.3776 145.089 86.0557 142.607C85.4125 137.648 85.2183 131.028 86.0683 124.412C86.9193 117.789 88.8107 111.219 92.3014 106.316C95.7755 101.437 100.839 98.1974 108.118 98.1974C112.892 98.1974 117.389 98.0318 121.263 97.8891C123.335 97.8128 125.228 97.7431 126.89 97.7088C129.292 97.6592 131.199 97.6836 132.499 97.8584C133.154 97.9464 133.608 98.0672 133.885 98.208C134.151 98.3432 134.151 98.4359 134.151 98.4604V98.4617C134.151 98.5226 134.111 98.6768 133.806 98.9136C133.509 99.1429 133.041 99.3859 132.39 99.6298C131.094 100.115 129.189 100.562 126.801 100.94C122.033 101.696 115.427 102.165 108.118 102.165ZM88.2806 150.502C88.2806 150.502 88.2801 150.502 88.279 150.501L88.2806 150.502Z" fill="white" stroke="black"/>
<path d="M146.967 69.1586C148.382 77.4492 148.699 83.6614 148.153 88.3157C147.607 92.9651 146.205 96.0256 144.21 98.0614C142.215 100.098 139.57 101.167 136.423 101.721C133.269 102.277 129.662 102.309 125.773 102.309C121.89 102.309 117.899 102.252 114.237 101.613C110.576 100.975 107.29 99.7623 104.786 97.4857C99.8114 92.9614 97.6971 83.9914 102.562 65.9922C104.571 58.5575 106.082 53.001 107.461 48.8382C108.843 44.6674 110.076 41.9545 111.506 40.1712C112.912 38.4181 114.525 37.543 116.749 37.0983C119.011 36.6459 121.872 36.6436 125.773 36.6436C129.676 36.6436 132.557 36.6464 134.813 37.1463C137.024 37.6364 138.606 38.5993 139.916 40.5397C141.25 42.517 142.314 45.5271 143.396 50.1502C144.475 54.7635 145.56 60.9221 146.967 69.1586Z" fill="white" stroke="black"/>
<path d="M116.882 9.63829C116.882 10.1576 116.584 10.9416 116.012 11.8818C115.453 12.8002 114.679 13.7951 113.83 14.7149C112.982 15.6349 112.072 16.4658 111.248 17.0622C110.836 17.3605 110.454 17.5936 110.12 17.7502C109.779 17.9102 109.522 17.9734 109.35 17.9734C109.092 17.9734 108.767 17.7698 108.417 17.1081C108.083 16.4748 107.812 15.5739 107.603 14.552C107.186 12.5164 107.039 10.1418 107.039 8.8351C107.039 7.53007 107.186 5.87879 107.591 4.57137C107.794 3.91612 108.05 3.384 108.356 3.02436C108.652 2.67601 108.976 2.50797 109.35 2.50797C109.761 2.50797 110.44 2.75482 111.286 3.25616C112.109 3.74339 113.017 4.42616 113.861 5.19486C114.707 5.96408 115.475 6.80641 116.028 7.60719C116.593 8.4259 116.882 9.13 116.882 9.63829Z" fill="#FFC0CB" stroke="black"/>
<path d="M131.135 7.63033C131.135 8.14963 131.433 8.93361 132.005 9.87381C132.564 10.7922 133.338 11.7871 134.187 12.7069C135.035 13.6269 135.945 14.4578 136.769 15.0542C137.181 15.3526 137.563 15.5856 137.897 15.7422C138.238 15.9023 138.495 15.9654 138.667 15.9654C138.925 15.9654 139.25 15.7618 139.6 15.1002C139.934 14.4668 140.205 13.5659 140.414 12.544C140.831 10.5084 140.978 8.13384 140.978 6.82714C140.978 5.52211 140.831 3.87082 140.426 2.56341C140.224 1.90816 139.967 1.37604 139.661 1.0164C139.365 0.668048 139.042 0.5 138.667 0.5C138.256 0.5 137.578 0.746857 136.731 1.2482C135.908 1.73543 135 2.41819 134.156 3.1869C133.31 3.95611 132.542 4.79845 131.989 5.59923C131.425 6.41794 131.135 7.12204 131.135 7.63033Z" fill="#FFC0CB" stroke="black"/>
<path d="M140.576 21.6862V21.7186L140.581 21.7508C141.754 30.7504 135.088 39.258 127.021 39.258C119.088 39.258 114.539 36.9361 111.952 33.6562C109.346 30.3525 108.646 25.9737 108.646 21.6862C108.646 17.5491 110.856 13.8655 114.135 11.2001C117.417 8.5335 121.724 6.92554 125.816 6.92554C133.973 6.92554 140.576 13.317 140.576 21.6862Z" fill="white" stroke="black"/>
<path d="M128.419 26.3051C128.419 27.8964 126.806 29.9816 125.804 29.9816C124.802 29.9816 122.974 27.8964 122.974 26.3051C122.974 24.6051 124.802 24.2193 125.804 24.2193C126.806 24.2193 128.419 24.7139 128.419 26.3051Z" fill="#FFC0CB"/>
<path d="M120.706 19.5824C120.524 20.5428 119.284 20.5428 117.529 20.5428C115.775 20.5428 114.353 19.2026 114.353 18.1418C114.353 16.7012 113.9 15.7408 117.076 15.7408C118.83 15.7408 121.159 17.1814 120.706 19.5824Z" fill="black"/>
<circle cx="118.989" cy="18.875" r="1.20479" fill="#00FF00"/>
<path d="M129.086 19.9054C129.267 20.8658 130.508 20.8658 132.262 20.8658C134.016 20.8658 135.438 19.5256 135.438 18.4648C135.438 17.0242 135.892 16.0638 132.716 16.0638C130.962 16.0638 128.632 17.5044 129.086 19.9054Z" fill="black"/>
<circle cx="133.446" cy="18.875" r="1.20479" fill="#00FF00"/>
<path d="M131.438 30.9229C131.438 31.5883 127.812 33.3325 125.816 33.3325C123.82 33.3325 120.193 31.5883 120.193 30.9229C120.193 30.2575 123.82 31.7261 125.816 31.7261C127.812 31.7261 131.438 30.2575 131.438 30.9229Z" fill="black"/>
<path d="M126.619 31.3245C126.619 32.2116 126.259 32.9308 125.816 32.9308C125.372 32.9308 125.013 32.2116 125.013 31.3245C125.013 30.4373 125.372 29.7181 125.816 29.7181C126.259 29.7181 126.619 30.4373 126.619 31.3245Z" fill="black"/>
</svg>
